PathFileType	4	(X/Y/Z)	/Users/niels/Desktop/University/Third Semester/Perception and Action/Exam/Gymnastics Motion Tracking/Code for Gym Tracking/Analyzed Data/Webcam_Backflip/id4_2_baseline_Sports2D/id4_2_baseline_Sports2D_px_person00.trc
DataRate	CameraRate	NumFrames	NumMarkers	Units	OrigDataRate	OrigDataStartFrame	OrigNumFrames
29.81132075471698	29.81132075471698	11	22	m	29.81132075471698	19	159
Frame#	Time	Hip			RHip			RKnee			RAnkle			RBigToe			RSmallToe			RHeel			LHip			LKnee			LAnkle			LBigToe			LSmallToe			LHeel			Neck			Head			Nose			RShoulder			RElbow			RWrist			LShoulder			LElbow			LWrist		
		X1	Y1	Z1	X2	Y2	Z2	X3	Y3	Z3	X4	Y4	Z4	X5	Y5	Z5	X6	Y6	Z6	X7	Y7	Z7	X8	Y8	Z8	X9	Y9	Z9	X10	Y10	Z10	X11	Y11	Z11	X12	Y12	Z12	X13	Y13	Z13	X14	Y14	Z14	X15	Y15	Z15	X16	Y16	Z16	X17	Y17	Z17	X18	Y18	Z18	X19	Y19	Z19	X20	Y20	Z20	X21	Y21	Z21	X22	Y22	Z22
19	0.6373417721518987	0.9964317885061716	-0.35800870232426096	0.0	1.0003946110387283	-0.35804738715417306	0.0	0.9778403836330363	-0.2662313169157128	0.0	1.0529677243015518	-0.28927475155213817	0.0	1.0715600100244533	-0.26383264234011566	0.0	1.0807850435429591	-0.27177415984470754	0.0	1.0634913562254094	-0.29989876067537263	0.0	0.9937394165175393	-0.3555522543996349	0.0	0.975048755162023	-0.2748010362699808	0.0	1.0517634824510926	-0.28495115651581104	0.0	1.0676033043726156	-0.25833900602474497	0.0	1.0727269695652804	-0.26445950499917875	0.0	1.0660471719346856	-0.2969560392022595	0.0	0.868107913688246	-0.37037040023128315	0.0	0.8093718398225984	-0.3755724603743112	0.0	0.8388718565462076	-0.3540091459147061	0.0	0.8834369515393109	-0.3608627290577484	0.0	0.9485139465071227	-0.3200700847926715	0.0	0.9644318158401457	-0.25810842292801683	0.0	0.8808152946546226	-0.3704826884600483	0.0	0.9400433791585244	-0.32529073995842706	0.0	0.9594315424943773	-0.2662209414479546	0.0
20	0.6708860759493671	1.0021100077753826	-0.3394546464743365	0.0	1.0055181397290538	-0.3379766623860069	0.0	0.9510535682023513	-0.262031302468953	0.0	1.0324460631705092	-0.2550624608174845	0.0	1.0387591114266512	-0.22075775556717228	0.0	1.0509983824508768	-0.22822497432067265	0.0	1.0449209115333042	-0.2615374610337498	0.0	0.9989037515900901	-0.3381678485495571	0.0	0.9513334560549045	-0.2729209883447554	0.0	1.0334909781378951	-0.25152497671128865	0.0	1.0395902580765575	-0.2178791643451329	0.0	1.0452369973969593	-0.22343600244884915	0.0	1.0497536986177882	-0.2594240880714435	0.0	0.8856622245654939	-0.3901243879364196	0.0	0.8341593322644998	-0.4115519966870345	0.0	0.8540671163383295	-0.38605626400313064	0.0	0.8999976934686795	-0.37447853295056555	0.0	0.9520341052602561	-0.3221666540922771	0.0	0.9542077593680003	-0.2618130952074827	0.0	0.8969770843426311	-0.3878760822906138	0.0	0.9444795364145961	-0.33026528417664885	0.0	0.9528547768191885	-0.2737404360943691	0.0
21	0.7044303797468354	1.0040100063069377	-0.321780362410505	0.0	1.0065087849989622	-0.3194354007738161	0.0	0.9266429242148037	-0.26894906610825775	0.0	1.003212129521672	-0.23337792694740556	0.0	0.9957523532120044	-0.196915593660594	0.0	1.00938815500611	-0.2027940006806783	0.0	1.015623491813801	-0.23487853821792629	0.0	1.000638324436981	-0.3211278209710736	0.0	0.9302218105531289	-0.28036460182223216	0.0	1.0070013664996278	-0.230108948887789	0.0	1.0011502971754525	-0.1961172760217014	0.0	1.007138965080301	-0.20027599440871197	0.0	1.022361385925517	-0.23297317478368335	0.0	0.9092833613369491	-0.40906558904755835	0.0	0.8687384475669357	-0.4454911649077607	0.0	0.8772948698995299	-0.4182936502221407	0.0	0.9207901802053319	-0.38865569845363546	0.0	0.9544579391388868	-0.3249801072733344	0.0	0.9402977187093697	-0.2694574571893015	0.0	0.9181922519401104	-0.4039248608387999	0.0	0.9495738886341203	-0.33462671377016034	0.0	0.945416246723732	-0.2848991726475818	0.0
22	0.7379746835443037	1.0018318256212044	-0.30709174877125894	0.0	1.0032056183069322	-0.3047647116046736	0.0	0.9068100042415261	-0.2852969541857329	0.0	0.967276587212673	-0.22563233392690846	0.0	0.9476241003583681	-0.19387327821389158	0.0	0.9604561787716721	-0.19702680785323065	0.0	0.9777979837625194	-0.22182442070332137	0.0	0.9985159875018887	-0.3066405512078555	0.0	0.913092775688305	-0.29493977736523497	0.0	0.9735303380543802	-0.22203381877964024	0.0	0.9557989958790523	-0.19349575926177798	0.0	0.9622006558425132	-0.19576792913815833	0.0	0.985925322890792	-0.21934180041471324	0.0	0.9375119241004571	-0.42457203748251326	0.0	0.9111093638837866	-0.4731946648594715	0.0	0.9079045554531693	-0.4463786151545162	0.0	0.9447182315643274	-0.40151724348146106	0.0	0.9563121437209775	-0.32935793849557143	0.0	0.9258121365680801	-0.2825673476346151	0.0	0.9432996273864213	-0.41647139042544734	0.0	0.9553180902574188	-0.33941313629140735	0.0	0.9399812624341214	-0.29991744626201106	0.0
23	0.7715189873417722	0.9960701862590724	-0.29745253182319326	0.0	0.9961670988066751	-0.29595032545078787	0.0	0.8931918404280091	-0.3090679131329136	0.0	0.9274200322366983	-0.23300652530077548	0.0	0.899587899362295	-0.21202422670644008	0.0	0.9095539395040323	-0.21150564866156377	0.0	0.9346038515531349	-0.22414194328683767	0.0	0.9930853828467066	-0.2971280106797741	0.0	0.901071453917082	-0.3150120882446936	0.0	0.9354056334042	-0.22881502700900722	0.0	0.9083631088073164	-0.2105127549562416	0.0	0.9150825580239856	-0.2105222123081034	0.0	0.9436873265504503	-0.22072171018287684	0.0	0.9681436059035456	-0.434676798808536	0.0	0.9581121441991606	-0.4917079572221896	0.0	0.9441396192540932	-0.46685277663967983	0.0	0.9702911698451996	-0.4112999803572367	0.0	0.9582837898944523	-0.33636904484125424	0.0	0.9140519422241004	-0.3024588449032018	0.0	0.970628936762118	-0.42397391542614093	0.0	0.9616132726850339	-0.34606291734985034	0.0	0.938829920055129	-0.3190790521713621	0.0
24	0.8050632911392405	0.9876846266940917	-0.29448564512723907	0.0	0.9864737888206179	-0.29424923103161654	0.0	0.8861786758592864	-0.3378389439158372	0.0	0.8873843484076382	-0.25633417776726075	0.0	0.8564264670389251	-0.2507352584977536	0.0	0.8623819711323868	-0.24628186909510344	0.0	0.8901985574438299	-0.2433550494090461	0.0	0.9854623281177144	-0.29453347594927654	0.0	0.8945232811192406	-0.33935096776894913	0.0	0.8962942421158335	-0.25183869193203373	0.0	0.8643857724899563	-0.24759048699300587	0.0	0.8710640426157534	-0.2450484946168175	0.0	0.9000012401681147	-0.23937613043965097	0.0	0.9985765793446567	-0.43874111065700494	0.0	1.0058289597012309	-0.5000529071788705	0.0	0.9830982241919417	-0.4783435795838201	0.0	0.9957272907754136	-0.4169922884345945	0.0	0.9609980044380663	-0.3468979847339682	0.0	0.9077515557449161	-0.32981030830458774	0.0	0.9979776246932555	-0.42605057508966393	0.0	0.9682157609498717	-0.35553465430757214	0.0	0.9423449193766215	-0.3430074312850324	0.0
25	0.8386075949367088	0.9777314713378906	-0.29917942849090134	0.0	0.9753967534269964	-0.300114532131293	0.0	0.8848268027201378	-0.3692933592757288	0.0	0.8519363082774556	-0.29540942536719106	0.0	0.8228868462745801	-0.3075685286818719	0.0	0.8247352767885593	-0.29988669929287504	0.0	0.8497852314580935	-0.28003598160525617	0.0	0.9766323765287531	-0.2998449932360115	0.0	0.8926478175239553	-0.3670379974469631	0.0	0.8609130921535043	-0.29145384615605774	0.0	0.8297242096469014	-0.3033929063698819	0.0	0.8357840749867503	-0.2983115154895237	0.0	0.8599902429004292	-0.2765526220286466	0.0	1.0262034674114544	-0.4377277957460484	0.0	1.050103920486557	-0.49931934356421437	0.0	1.0210118510745332	-0.48169293339652275	0.0	1.0191566575214641	-0.41878889613992304	0.0	0.964923616660134	-0.36141362452183085	0.0	0.9085625158842303	-0.3641889680946476	0.0	1.0228027945685483	-0.42376952531025147	0.0	0.9747447528924756	-0.3682855707637776	0.0	0.9485542987060962	-0.3723464438201191	0.0
26	0.8721518987341772	0.9671195412394241	-0.31178872946830155	0.0	0.9639910984548167	-0.3132962573523548	0.0	0.8874044942661984	-0.40198871299002276	0.0	0.825943500381683	-0.34849824959042736	0.0	0.8034020719286313	-0.377753651186659	0.0	0.8016985412185348	-0.3682972466182298	0.0	0.8188054012084491	-0.33320196693179	0.0	0.9672522645938421	-0.3129847037444612	0.0	0.893888985981541	-0.39758421875281885	0.0	0.8341746282719908	-0.3460799133417744	0.0	0.8095176651603755	-0.3735137850832691	0.0	0.8142577806407703	-0.3664471624480375	0.0	0.8287596810448297	-0.331400438574392	0.0	1.048870976819755	-0.4338303032250133	0.0	1.0874942852795582	-0.4920805809154073	0.0	1.0542143008488754	-0.4792235804762245	0.0	1.038823428914118	-0.418125179866171	0.0	0.9704739308611938	-0.37997405837476556	0.0	0.9171715923229378	-0.40378922130046285	0.0	1.0428972422167389	-0.419312055986767	0.0	0.9811003948465894	-0.3846883236931704	0.0	0.9556271564125203	-0.4069026318764359	0.0
27	0.9056962025316455	0.9565922178525396	-0.33197258594924317	0.0	0.9530054347004604	-0.33324715827288176	0.0	0.8921098853214644	-0.435616701361075	0.0	0.8128700877899797	-0.41230745334530267	0.0	0.8004178891135515	-0.4547026767103451	0.0	0.7960661514203565	-0.4451830620034635	0.0	0.8014634628814966	-0.3998706174504108	0.0	0.9578726582205869	-0.33332808327087543	0.0	0.8968094262749848	-0.43086988069294785	0.0	0.8199228160283754	-0.41189333472058104	0.0	0.8062992713272199	-0.45096612751766396	0.0	0.8091472603182842	-0.4430115580987724	0.0	0.8103660124777363	-0.4003095064166445	0.0	1.0652194174733614	-0.4297317559803562	0.0	1.116016518021881	-0.481588038489046	0.0	1.0801918019386476	-0.4738738722601846	0.0	1.053323554380679	-0.41726121105179165	0.0	0.978070897520568	-0.40224256088361715	0.0	0.9338368478181676	-0.4455017955189322	0.0	1.0569553542892216	-0.4153268514942632	0.0	0.9878404810195189	-0.40505351982100657	0.0	0.9647228587004388	-0.4447926247940272	0.0
28	0.9392405063291138	0.9467685777801417	-0.359187842515993	0.0	0.9430525723767896	-0.3596707704747776	0.0	0.8977374997003619	-0.470781096114665	0.0	0.8138119654345438	-0.4823804394169031	0.0	0.8130604766733666	-0.5316193019686007	0.0	0.8071631654735044	-0.5235089279971719	0.0	0.7995630494984624	-0.47509118975369596	0.0	0.9489742758591736	-0.3603864390847595	0.0	0.9006760069293477	-0.4669936134201632	0.0	0.8196672370645682	-0.4835516868438799	0.0	0.8189068293045818	-0.5284456829244657	0.0	0.819605122671007	-0.5207970766444142	0.0	0.8067381201929419	-0.47732393196994805	0.0	1.0747382268138892	-0.4279094495729738	0.0	1.1350750279396875	-0.47087549829454123	0.0	1.0979633921438716	-0.46849502300705864	0.0	1.0618745992471814	-0.41859380713588046	0.0	0.9879606563009633	-0.42749376240466275	0.0	0.9582540026578338	-0.4855774103643026	0.0	1.0645695677550129	-0.41429900614050663	0.0	0.9959025330055762	-0.42911160736428483	0.0	0.9787611941538493	-0.48244416642989796	0.0
29	0.9727848101265822	0.9381421902229863	-0.39292086432673506	0.0	0.9346616714003788	-0.3925837433590974	0.0	0.9040348757583121	-0.5085242352430072	0.0	0.8272795927366844	-0.5539442770016995	0.0	0.8373619923923271	-0.6034003508667803	0.0	0.831008438645122	-0.5976117411358098	0.0	0.8119949984308235	-0.5529023900424324	0.0	0.9409116681780949	-0.3938936176745123	0.0	0.9055479310246128	-0.5061838621702718	0.0	0.8320221080562481	-0.5556527411163412	0.0	0.8430917779590489	-0.6006181753005427	0.0	0.841627602884255	-0.5940556146917265	0.0	0.8170401841834858	-0.5556891418425722	0.0	1.0776042353568829	-0.4302507405082788	0.0	1.144875559029182	-0.46214290425653015	0.0	1.1076879246840954	-0.4654068664016242	0.0	1.064418345362076	-0.42406195402428165	0.0	0.9998609578485277	-0.4547863307044626	0.0	0.9887834300126906	-0.5207705580269452	0.0	1.065966748917035	-0.4180842126543711	0.0	1.0058493793690393	-0.45570141485072685	0.0	0.9991435376428525	-0.515693493567416	0.0
